<svg id="Layer_1" data-name="Layer 1" xmlns="http://www.w3.org/2000/svg" viewBox="0 0 577.78 192"><defs><style>.cls-1{fill:#0a0b0d;}.cls-2{fill:#7b3fe4;}</style></defs><path class="cls-1" d="M163.79,76.14h11.1v4.39a12.12,12.12,0,0,1,4.79-3.71,16.31,16.31,0,0,1,6.78-1.32,18.25,18.25,0,0,1,9.75,2.55,17,17,0,0,1,6.42,7.27,24.88,24.88,0,0,1,2.28,10.94,23.29,23.29,0,0,1-2.44,10.9,17.73,17.73,0,0,1-6.82,7.26,19.59,19.59,0,0,1-10.14,2.6,16.76,16.76,0,0,1-6.23-1.12,10.46,10.46,0,0,1-4.39-3.11v19.88h-11.1ZM177,104.36a9.86,9.86,0,0,0,14.3,0,11.83,11.83,0,0,0,2.71-8.1,12,12,0,0,0-2.71-8.19,9.86,9.86,0,0,0-14.3,0,12,12,0,0,0-2.71,8.19A11.81,11.81,0,0,0,177,104.36Z"/><path class="cls-1" d="M219.2,114.34a19.18,19.18,0,0,1-7.58-7.42,22.25,22.25,0,0,1,0-21.32,19.27,19.27,0,0,1,7.58-7.43,23.75,23.75,0,0,1,21.88,0,19.27,19.27,0,0,1,7.58,7.43,22.25,22.25,0,0,1,0,21.32,19.18,19.18,0,0,1-7.58,7.42,23.67,23.67,0,0,1-21.88,0Zm3.67-10a10.06,10.06,0,0,0,14.54,0,11.58,11.58,0,0,0,2.79-8.06,11.78,11.78,0,0,0-2.79-8.15,10.06,10.06,0,0,0-14.54,0,11.78,11.78,0,0,0-2.79,8.15A11.58,11.58,0,0,0,222.87,104.32Z"/><path class="cls-1" d="M258.08,58.65h11.1v57.73h-11.1Z"/><path class="cls-1" d="M289,116.06,274.37,76.14h11.34l8.46,26,8.39-25.95H314l-14.61,40.08-5.67,16.45H283.07Z"/><path class="cls-1" d="M320.32,111.39a21.77,21.77,0,0,1-5.07-15.13,24.88,24.88,0,0,1,2.28-10.94,16.82,16.82,0,0,1,6.5-7.27,19.19,19.19,0,0,1,10.06-2.55,16.5,16.5,0,0,1,6.51,1.24,11.1,11.1,0,0,1,4.59,3.39v-4h11.18v42.63a13.05,13.05,0,0,1-4.15,10.1,15.75,15.75,0,0,1-11,3.8H320.92V124h18.52a5.35,5.35,0,0,0,2.3-.43,5.57,5.57,0,0,0,1.9-1.36,6.57,6.57,0,0,0,1.63-4.59v-5.27a9.75,9.75,0,0,1-4.47,3.47,16.68,16.68,0,0,1-6.54,1.24,17.89,17.89,0,0,1-13.94-5.63Zm8.54-7a9.13,9.13,0,0,0,7.15,3,9.22,9.22,0,0,0,7.19-3,11.75,11.75,0,0,0,2.71-8.14,12,12,0,0,0-2.71-8.19A9.16,9.16,0,0,0,336,85a8.94,8.94,0,0,0-3.92.72,9.19,9.19,0,0,0-3.23,2.35,12,12,0,0,0-2.67,8.19A11.91,11.91,0,0,0,328.86,104.4Z"/><path class="cls-1" d="M373.38,114.34a19.14,19.14,0,0,1-7.59-7.42,22.25,22.25,0,0,1,0-21.32,19.23,19.23,0,0,1,7.59-7.43,23.73,23.73,0,0,1,21.87,0,19.23,19.23,0,0,1,7.59,7.43,22.32,22.32,0,0,1,0,21.32,19.14,19.14,0,0,1-7.59,7.42,23.65,23.65,0,0,1-21.87,0Zm3.67-10a9.77,9.77,0,0,0,3.31,2.3,10,10,0,0,0,11.22-2.3,11.58,11.58,0,0,0,2.79-8.06,11.73,11.73,0,0,0-2.79-8.15,10.27,10.27,0,0,0-3.31-2.3,10.06,10.06,0,0,0-7.91,0,10.06,10.06,0,0,0-3.31,2.3,11.79,11.79,0,0,0-2.8,8.15A11.64,11.64,0,0,0,377.05,104.32Z"/><path class="cls-1" d="M411.62,76.14H422.8v5.59a11.42,11.42,0,0,1,4.87-4.59A15.83,15.83,0,0,1,435,75.5a15.27,15.27,0,0,1,7.87,2,13.84,13.84,0,0,1,5.27,5.59A17.52,17.52,0,0,1,450,91.31v25.07H438.85V93.78a8.62,8.62,0,0,0-2.16-6A7.33,7.33,0,0,0,434.15,86a7.22,7.22,0,0,0-3-.56,7.78,7.78,0,0,0-6,2.51,9.15,9.15,0,0,0-2.31,6.43v22H411.62Z"/><path class="cls-1" d="M476.61,60.49h8.3v55.89h-8.3Z"/><path class="cls-1" d="M496.25,60.49h17.17a31.48,31.48,0,0,1,14.33,3.23,24.23,24.23,0,0,1,10.14,9.54,29.45,29.45,0,0,1,3.71,15.17,29.35,29.35,0,0,1-3.71,15.17,24.2,24.2,0,0,1-10.14,9.55,31.48,31.48,0,0,1-14.33,3.23H496.25ZM512.94,109A23.14,23.14,0,0,0,523,106.88a16.83,16.83,0,0,0,7.31-6.79,22.57,22.57,0,0,0,2.75-11.66,22.53,22.53,0,0,0-2.75-11.65A16.77,16.77,0,0,0,523,70a23.3,23.3,0,0,0-10.06-2.16h-8.39V109Z"/><path class="cls-2" d="M133.39,67.27a20.85,20.85,0,0,0-7.58-7.6l-6.72-3.87a29.12,29.12,0,0,1,.56,5.66v7l.82.48a10.15,10.15,0,0,1,5,8.73v35.1a10,10,0,0,1-5,8.7l.08.14h0a4.36,4.36,0,0,0-1.25.5l-3.6,2.11a8.9,8.9,0,0,1-3.79,1.15.63.63,0,0,1-.19,0h0a8,8,0,0,1-2.75-.22,6.9,6.9,0,0,1-1.07-.32h0l-9.6-5.39h0l-1-.56-.86-.51-6-3.47,0,0L69,102.46l-10.49,6.25,41.69,24.21h0a5.39,5.39,0,0,0,1.76,1,.09.09,0,0,0,.06,0h0a19.82,19.82,0,0,0,19-.48l3.6-2.08a5.38,5.38,0,0,0,1.07-.83l.1.19a20.75,20.75,0,0,0,9.64-12.6v0a20,20,0,0,0,.72-5.34V77.64A20.87,20.87,0,0,0,133.39,67.27Z"/><path class="cls-2" d="M44.59,79.83V77.64a10.17,10.17,0,0,1,5-8.73L67.49,58.58l10.36-5.95L80,51.37a10.18,10.18,0,0,1,10.06,0h0l3.6,2.09A9.08,9.08,0,0,1,98.16,60l.08.64,0,0a.76.76,0,0,1,.06.26h0a3.25,3.25,0,0,1,0,.54v45.72l10.68,6V63.65h0V61.46a19,19,0,0,0-.29-3.28,19.86,19.86,0,0,0-3.26-8.07A19.64,19.64,0,0,0,99,44.22l-3.6-2.08h0A20.74,20.74,0,0,0,78,40.59a22.31,22.31,0,0,0-3.28,1.55L63.83,48.38,44.26,59.67a20.85,20.85,0,0,0-10.35,18v9a32.06,32.06,0,0,1,4.59-3.26Z"/><path class="cls-2" d="M89.72,139.19A10.05,10.05,0,0,1,80,139L55.29,124.7l-2.86-1.63-2.8-1.63a10,10,0,0,1-5-8.69v-2.92A9.1,9.1,0,0,1,47.68,103a2.11,2.11,0,0,1,.38-.35.35.35,0,0,1,.18-.16,3.56,3.56,0,0,1,.59-.43h0l6.34-3.76,0,0,3.28-1.92L66,92h0L87.62,79.24V66.85L45.39,91.68h0l-.19.11h0l-1.36.8a15,15,0,0,0-2.72,2,19.59,19.59,0,0,0-7.21,15.29v2.91h0V114a4.82,4.82,0,0,0,.16,1.25h0v0a20.84,20.84,0,0,0,8.59,14.36,15.37,15.37,0,0,0,1.6,1.07l2.41,1.38,28,16.15a20.73,20.73,0,0,0,20.74,0L101,145a27.45,27.45,0,0,1-5.18-2.35Z"/></svg>